<mxfile host="app.diagrams.net" modified="2023-04-03T00:00:31.828Z" agent="Mozilla/5.0 (Macintosh; Intel Mac OS X 10_15_7) AppleWebKit/537.36 (KHTML, like Gecko) Chrome/112.0.0.0 Safari/537.36 Edg/112.0.0.0" etag="Ux_p3R63EW7fIXP6CmB-" version="21.1.2" type="device" pages="3">
  <diagram id="fnM0bY1LHHpOJiFxNfmP" name="HighLevel">
    <mxGraphModel dx="1224" dy="810" grid="1" gridSize="10" guides="1" tooltips="1" connect="1" arrows="1" fold="1" page="1" pageScale="1" pageWidth="827" pageHeight="1169" math="0" shadow="0">
      <root>
        <mxCell id="0" />
        <mxCell id="1" parent="0" />
        <mxCell id="u31ACBjPLevuQ40nlGYi-2" value="" style="rounded=0;whiteSpace=wrap;html=1;labelBorderColor=none;strokeColor=#121212;fontSize=18;fontColor=#EEEEEE;fillColor=none;dashed=1;strokeWidth=2;" parent="1" vertex="1">
          <mxGeometry x="80" y="880" width="610" height="390" as="geometry" />
        </mxCell>
        <mxCell id="u31ACBjPLevuQ40nlGYi-3" value="&lt;b&gt;Server Process&lt;/b&gt;" style="text;html=1;strokeColor=none;fillColor=none;align=center;verticalAlign=middle;whiteSpace=wrap;rounded=0;fontSize=24;fontColor=#121212;" parent="1" vertex="1">
          <mxGeometry x="110" y="550" width="200" height="30" as="geometry" />
        </mxCell>
        <mxCell id="u31ACBjPLevuQ40nlGYi-7" style="edgeStyle=orthogonalEdgeStyle;rounded=0;orthogonalLoop=1;jettySize=auto;html=1;entryX=0.5;entryY=0;entryDx=0;entryDy=0;strokeColor=none;strokeWidth=3;fontSize=18;startArrow=none;" parent="1" edge="1">
          <mxGeometry relative="1" as="geometry">
            <mxPoint x="210" y="760" as="sourcePoint" />
            <mxPoint x="210" y="790" as="targetPoint" />
          </mxGeometry>
        </mxCell>
        <mxCell id="u31ACBjPLevuQ40nlGYi-15" value="&lt;b&gt;Client Process&lt;/b&gt;" style="text;html=1;strokeColor=none;fillColor=none;align=center;verticalAlign=middle;whiteSpace=wrap;rounded=0;fontSize=24;fontColor=#121212;" parent="1" vertex="1">
          <mxGeometry x="450" y="550" width="200" height="30" as="geometry" />
        </mxCell>
        <mxCell id="u31ACBjPLevuQ40nlGYi-16" style="edgeStyle=orthogonalEdgeStyle;rounded=0;orthogonalLoop=1;jettySize=auto;html=1;strokeColor=#121212;strokeWidth=3;fontSize=18;" parent="1" source="HUotjCAVA0zv2-qLeIBR-4" target="HUotjCAVA0zv2-qLeIBR-5" edge="1">
          <mxGeometry relative="1" as="geometry">
            <mxPoint x="560" y="490" as="sourcePoint" />
            <mxPoint x="560" y="910" as="targetPoint" />
          </mxGeometry>
        </mxCell>
        <mxCell id="u31ACBjPLevuQ40nlGYi-19" style="edgeStyle=orthogonalEdgeStyle;rounded=0;orthogonalLoop=1;jettySize=auto;html=1;strokeColor=#005700;strokeWidth=3;fontSize=18;fillColor=#008a00;exitX=0;exitY=0.5;exitDx=0;exitDy=0;entryX=1;entryY=0.5;entryDx=0;entryDy=0;" parent="1" source="HUotjCAVA0zv2-qLeIBR-4" target="u31ACBjPLevuQ40nlGYi-43" edge="1">
          <mxGeometry relative="1" as="geometry">
            <mxPoint x="210" y="770" as="targetPoint" />
            <Array as="points">
              <mxPoint x="520" y="780" />
            </Array>
            <mxPoint x="470" y="540" as="sourcePoint" />
          </mxGeometry>
        </mxCell>
        <mxCell id="u31ACBjPLevuQ40nlGYi-20" value="&lt;span style=&quot;&quot;&gt;New &lt;br&gt;Connection&lt;br&gt;&lt;/span&gt;" style="edgeLabel;html=1;align=center;verticalAlign=middle;resizable=0;points=[];fontSize=18;fontColor=#005700;labelBackgroundColor=#FFFFFFFF;" parent="u31ACBjPLevuQ40nlGYi-19" vertex="1" connectable="0">
          <mxGeometry x="0.3727" y="3" relative="1" as="geometry">
            <mxPoint x="65" y="-3" as="offset" />
          </mxGeometry>
        </mxCell>
        <mxCell id="u31ACBjPLevuQ40nlGYi-22" style="edgeStyle=orthogonalEdgeStyle;rounded=0;orthogonalLoop=1;jettySize=auto;html=1;strokeColor=#121212;strokeWidth=3;fontSize=18;startArrow=none;entryX=0.5;entryY=0;entryDx=0;entryDy=0;" parent="1" source="u31ACBjPLevuQ40nlGYi-40" target="HUotjCAVA0zv2-qLeIBR-2" edge="1">
          <mxGeometry relative="1" as="geometry">
            <mxPoint x="210" y="1160" as="sourcePoint" />
            <mxPoint x="210" y="1175" as="targetPoint" />
          </mxGeometry>
        </mxCell>
        <mxCell id="u31ACBjPLevuQ40nlGYi-24" style="edgeStyle=orthogonalEdgeStyle;rounded=0;orthogonalLoop=1;jettySize=auto;html=1;strokeColor=#121212;strokeWidth=3;fontSize=18;exitX=1;exitY=0.5;exitDx=0;exitDy=0;" parent="1" source="HUotjCAVA0zv2-qLeIBR-2" target="HUotjCAVA0zv2-qLeIBR-6" edge="1">
          <mxGeometry relative="1" as="geometry">
            <mxPoint x="300" y="1225" as="sourcePoint" />
            <mxPoint x="470" y="1205" as="targetPoint" />
          </mxGeometry>
        </mxCell>
        <mxCell id="u31ACBjPLevuQ40nlGYi-26" style="edgeStyle=orthogonalEdgeStyle;rounded=0;orthogonalLoop=1;jettySize=auto;html=1;strokeColor=#121212;strokeWidth=3;fontSize=18;fillColor=#60a917;exitX=0.5;exitY=1;exitDx=0;exitDy=0;entryX=0.5;entryY=0;entryDx=0;entryDy=0;" parent="1" source="HUotjCAVA0zv2-qLeIBR-5" target="HUotjCAVA0zv2-qLeIBR-6" edge="1">
          <mxGeometry relative="1" as="geometry">
            <mxPoint x="560" y="965" as="sourcePoint" />
            <mxPoint x="560" y="1185" as="targetPoint" />
          </mxGeometry>
        </mxCell>
        <mxCell id="u31ACBjPLevuQ40nlGYi-27" style="edgeStyle=orthogonalEdgeStyle;rounded=0;orthogonalLoop=1;jettySize=auto;html=1;strokeColor=#121212;strokeWidth=3;fontSize=18;entryX=1;entryY=0.5;entryDx=0;entryDy=0;exitX=0;exitY=0.5;exitDx=0;exitDy=0;" parent="1" source="HUotjCAVA0zv2-qLeIBR-5" target="HUotjCAVA0zv2-qLeIBR-1" edge="1">
          <mxGeometry relative="1" as="geometry">
            <mxPoint x="470" y="945" as="sourcePoint" />
            <mxPoint x="300" y="945" as="targetPoint" />
          </mxGeometry>
        </mxCell>
        <mxCell id="u31ACBjPLevuQ40nlGYi-30" value="" style="edgeStyle=orthogonalEdgeStyle;rounded=0;orthogonalLoop=1;jettySize=auto;html=1;strokeColor=#121212;strokeWidth=3;fontSize=18;endArrow=classic;endFill=1;exitX=0.5;exitY=1;exitDx=0;exitDy=0;" parent="1" source="HUotjCAVA0zv2-qLeIBR-1" target="u31ACBjPLevuQ40nlGYi-40" edge="1">
          <mxGeometry relative="1" as="geometry">
            <mxPoint x="210" y="965" as="sourcePoint" />
            <mxPoint x="210" y="1010" as="targetPoint" />
          </mxGeometry>
        </mxCell>
        <mxCell id="u31ACBjPLevuQ40nlGYi-33" style="edgeStyle=orthogonalEdgeStyle;rounded=0;orthogonalLoop=1;jettySize=auto;html=1;strokeColor=#121212;strokeWidth=3;fontSize=18;" parent="1" source="HUotjCAVA0zv2-qLeIBR-6" target="Goqp6NftipQBQ7dsFjS4-1" edge="1">
          <mxGeometry relative="1" as="geometry">
            <mxPoint x="560" y="1260" as="sourcePoint" />
            <mxPoint x="560" y="1310" as="targetPoint" />
          </mxGeometry>
        </mxCell>
        <mxCell id="u31ACBjPLevuQ40nlGYi-34" style="edgeStyle=orthogonalEdgeStyle;rounded=0;orthogonalLoop=1;jettySize=auto;html=1;strokeColor=#121212;strokeWidth=3;fontSize=18;exitX=0.5;exitY=1;exitDx=0;exitDy=0;" parent="1" source="u31ACBjPLevuQ40nlGYi-43" target="HUotjCAVA0zv2-qLeIBR-1" edge="1">
          <mxGeometry relative="1" as="geometry">
            <mxPoint x="220" y="660" as="sourcePoint" />
            <mxPoint x="220" y="810" as="targetPoint" />
          </mxGeometry>
        </mxCell>
        <mxCell id="u31ACBjPLevuQ40nlGYi-40" value="&lt;span style=&quot;&quot;&gt;M2M Process&lt;/span&gt;" style="ellipse;whiteSpace=wrap;html=1;aspect=fixed;dashed=1;labelBackgroundColor=none;labelBorderColor=none;strokeColor=none;strokeWidth=2;fontSize=18;fontColor=default;fillColor=#A9C4EB;" parent="1" vertex="1">
          <mxGeometry x="170" y="1035" width="80" height="80" as="geometry" />
        </mxCell>
        <mxCell id="u31ACBjPLevuQ40nlGYi-41" style="edgeStyle=orthogonalEdgeStyle;rounded=0;orthogonalLoop=1;jettySize=auto;html=1;strokeWidth=3;" parent="1" source="u31ACBjPLevuQ40nlGYi-42" target="u31ACBjPLevuQ40nlGYi-43" edge="1">
          <mxGeometry relative="1" as="geometry">
            <mxPoint x="210" y="590" as="targetPoint" />
          </mxGeometry>
        </mxCell>
        <mxCell id="u31ACBjPLevuQ40nlGYi-42" value="&lt;span style=&quot;&quot;&gt;Protocol Init&lt;/span&gt;" style="ellipse;whiteSpace=wrap;html=1;aspect=fixed;dashed=1;labelBackgroundColor=none;labelBorderColor=none;strokeColor=none;strokeWidth=2;fontSize=18;fontColor=default;fillColor=#A9C4EB;" parent="1" vertex="1">
          <mxGeometry x="170" y="610" width="80" height="80" as="geometry" />
        </mxCell>
        <mxCell id="u31ACBjPLevuQ40nlGYi-43" value="Server Init" style="ellipse;whiteSpace=wrap;html=1;aspect=fixed;dashed=1;labelBackgroundColor=none;labelBorderColor=none;strokeColor=none;strokeWidth=2;fontSize=18;fontColor=default;fillColor=#A9C4EB;" parent="1" vertex="1">
          <mxGeometry x="170" y="740" width="80" height="80" as="geometry" />
        </mxCell>
        <mxCell id="HUotjCAVA0zv2-qLeIBR-1" value="Read Request" style="ellipse;whiteSpace=wrap;html=1;aspect=fixed;dashed=1;labelBackgroundColor=none;labelBorderColor=none;strokeColor=none;strokeWidth=2;fontSize=18;fontColor=default;fillColor=#A9C4EB;" parent="1" vertex="1">
          <mxGeometry x="170" y="905" width="80" height="80" as="geometry" />
        </mxCell>
        <mxCell id="HUotjCAVA0zv2-qLeIBR-3" style="edgeStyle=orthogonalEdgeStyle;rounded=0;orthogonalLoop=1;jettySize=auto;html=1;strokeWidth=3;entryX=0.5;entryY=0;entryDx=0;entryDy=0;" parent="1" source="HUotjCAVA0zv2-qLeIBR-2" target="eYCXBV-6KDn32ipCtLxP-1" edge="1">
          <mxGeometry relative="1" as="geometry">
            <mxPoint x="210" y="1320" as="targetPoint" />
          </mxGeometry>
        </mxCell>
        <mxCell id="HUotjCAVA0zv2-qLeIBR-2" value="Send Response" style="ellipse;whiteSpace=wrap;html=1;aspect=fixed;dashed=1;labelBackgroundColor=none;labelBorderColor=none;strokeColor=none;strokeWidth=2;fontSize=18;fontColor=default;fillColor=#A9C4EB;" parent="1" vertex="1">
          <mxGeometry x="170" y="1165" width="80" height="80" as="geometry" />
        </mxCell>
        <mxCell id="HUotjCAVA0zv2-qLeIBR-4" value="Connect to Server" style="ellipse;whiteSpace=wrap;html=1;aspect=fixed;dashed=1;labelBackgroundColor=none;labelBorderColor=none;strokeColor=none;strokeWidth=2;fontSize=18;fontColor=#FFFFFF;fillColor=#D47F7F;" parent="1" vertex="1">
          <mxGeometry x="520" y="740" width="80" height="80" as="geometry" />
        </mxCell>
        <mxCell id="HUotjCAVA0zv2-qLeIBR-5" value="Send Request" style="ellipse;whiteSpace=wrap;html=1;aspect=fixed;dashed=1;labelBackgroundColor=none;labelBorderColor=none;strokeColor=none;strokeWidth=2;fontSize=18;fontColor=#FFFFFF;fillColor=#60A917;" parent="1" vertex="1">
          <mxGeometry x="520" y="905" width="80" height="80" as="geometry" />
        </mxCell>
        <mxCell id="HUotjCAVA0zv2-qLeIBR-6" value="Read Response" style="ellipse;whiteSpace=wrap;html=1;aspect=fixed;dashed=1;labelBackgroundColor=none;labelBorderColor=none;strokeColor=none;strokeWidth=2;fontSize=18;fontColor=#FFFFFF;fillColor=#60A917;" parent="1" vertex="1">
          <mxGeometry x="520" y="1165" width="80" height="80" as="geometry" />
        </mxCell>
        <mxCell id="Goqp6NftipQBQ7dsFjS4-1" value="End Connection" style="ellipse;whiteSpace=wrap;html=1;aspect=fixed;dashed=1;labelBackgroundColor=none;labelBorderColor=none;strokeColor=none;strokeWidth=2;fontSize=18;fontColor=#FFFFFF;fillColor=#828282;" parent="1" vertex="1">
          <mxGeometry x="520" y="1310" width="80" height="80" as="geometry" />
        </mxCell>
        <mxCell id="eYCXBV-6KDn32ipCtLxP-1" value="End Connection" style="ellipse;whiteSpace=wrap;html=1;aspect=fixed;dashed=1;labelBackgroundColor=none;labelBorderColor=none;strokeColor=none;strokeWidth=2;fontSize=18;fontColor=#FFFFFF;fillColor=#828282;" parent="1" vertex="1">
          <mxGeometry x="170" y="1310" width="80" height="80" as="geometry" />
        </mxCell>
      </root>
    </mxGraphModel>
  </diagram>
  <diagram id="9NSzz-Nyogx-RR2d6qlj" name="SocketView">
    <mxGraphModel dx="1224" dy="810" grid="1" gridSize="10" guides="1" tooltips="1" connect="1" arrows="1" fold="1" page="1" pageScale="1" pageWidth="827" pageHeight="1169" background="#ffffff" math="0" shadow="0">
      <root>
        <mxCell id="0" />
        <mxCell id="1" parent="0" />
        <mxCell id="8VBoL8TMkOMirUI06Anp-37" style="edgeStyle=orthogonalEdgeStyle;rounded=0;orthogonalLoop=1;jettySize=auto;html=1;entryX=0.5;entryY=0;entryDx=0;entryDy=0;strokeColor=#121212;strokeWidth=3;fontSize=18;" parent="1" source="8VBoL8TMkOMirUI06Anp-13" target="8VBoL8TMkOMirUI06Anp-34" edge="1">
          <mxGeometry relative="1" as="geometry">
            <mxPoint x="210" y="1190" as="sourcePoint" />
          </mxGeometry>
        </mxCell>
        <mxCell id="8VBoL8TMkOMirUI06Anp-21" value="" style="rounded=0;whiteSpace=wrap;html=1;labelBorderColor=none;strokeColor=#121212;fontSize=18;fontColor=#EEEEEE;fillColor=none;dashed=1;strokeWidth=2;" parent="1" vertex="1">
          <mxGeometry x="90" y="870" width="610" height="340" as="geometry" />
        </mxCell>
        <mxCell id="8VBoL8TMkOMirUI06Anp-1" value="&lt;b&gt;Server Process&lt;/b&gt;" style="text;html=1;strokeColor=none;fillColor=none;align=center;verticalAlign=middle;whiteSpace=wrap;rounded=0;fontSize=24;fontColor=#121212;" parent="1" vertex="1">
          <mxGeometry x="110" y="180" width="200" height="30" as="geometry" />
        </mxCell>
        <mxCell id="8VBoL8TMkOMirUI06Anp-10" style="edgeStyle=orthogonalEdgeStyle;rounded=0;orthogonalLoop=1;jettySize=auto;html=1;strokeColor=none;fontSize=18;strokeWidth=3;" parent="1" source="8VBoL8TMkOMirUI06Anp-3" target="8VBoL8TMkOMirUI06Anp-4" edge="1">
          <mxGeometry relative="1" as="geometry" />
        </mxCell>
        <mxCell id="8VBoL8TMkOMirUI06Anp-17" style="edgeStyle=orthogonalEdgeStyle;rounded=0;orthogonalLoop=1;jettySize=auto;html=1;entryX=0.5;entryY=0;entryDx=0;entryDy=0;strokeColor=#121212;strokeWidth=3;fontSize=18;" parent="1" source="8VBoL8TMkOMirUI06Anp-3" target="8VBoL8TMkOMirUI06Anp-4" edge="1">
          <mxGeometry relative="1" as="geometry" />
        </mxCell>
        <mxCell id="8VBoL8TMkOMirUI06Anp-3" value="&lt;b style=&quot;font-size: 18px;&quot;&gt;socket()&lt;/b&gt;" style="rounded=0;html=1;fontSize=18;fillColor=#4FC4C4;strokeColor=none;fontColor=#EEEEEE;whiteSpace=wrap;labelBorderColor=none;" parent="1" vertex="1">
          <mxGeometry x="120" y="360" width="180" height="40" as="geometry" />
        </mxCell>
        <mxCell id="8VBoL8TMkOMirUI06Anp-11" style="edgeStyle=orthogonalEdgeStyle;rounded=0;orthogonalLoop=1;jettySize=auto;html=1;entryX=0.5;entryY=0;entryDx=0;entryDy=0;strokeColor=none;strokeWidth=3;fontSize=18;" parent="1" source="8VBoL8TMkOMirUI06Anp-4" target="8VBoL8TMkOMirUI06Anp-5" edge="1">
          <mxGeometry relative="1" as="geometry" />
        </mxCell>
        <mxCell id="8VBoL8TMkOMirUI06Anp-40" style="edgeStyle=orthogonalEdgeStyle;rounded=0;orthogonalLoop=1;jettySize=auto;html=1;strokeColor=#121212;strokeWidth=3;fontSize=18;" parent="1" source="8VBoL8TMkOMirUI06Anp-4" target="8VBoL8TMkOMirUI06Anp-39" edge="1">
          <mxGeometry relative="1" as="geometry" />
        </mxCell>
        <mxCell id="8VBoL8TMkOMirUI06Anp-4" value="&lt;b style=&quot;font-size: 18px;&quot;&gt;bind()&lt;/b&gt;" style="rounded=0;html=1;fontSize=18;fillColor=#4FC4C4;strokeColor=none;fontColor=#EEEEEE;whiteSpace=wrap;labelBorderColor=none;" parent="1" vertex="1">
          <mxGeometry x="120" y="450" width="180" height="40" as="geometry" />
        </mxCell>
        <mxCell id="8VBoL8TMkOMirUI06Anp-19" style="edgeStyle=orthogonalEdgeStyle;rounded=0;orthogonalLoop=1;jettySize=auto;html=1;strokeColor=#121212;strokeWidth=3;fontSize=18;startArrow=none;" parent="1" source="8VBoL8TMkOMirUI06Anp-43" target="8VBoL8TMkOMirUI06Anp-12" edge="1">
          <mxGeometry relative="1" as="geometry" />
        </mxCell>
        <mxCell id="8VBoL8TMkOMirUI06Anp-47" value="New Thread" style="edgeLabel;html=1;align=center;verticalAlign=middle;resizable=0;points=[];fontSize=18;fontColor=#EEEEEE;labelBackgroundColor=#828282;spacing=5;" parent="8VBoL8TMkOMirUI06Anp-19" vertex="1" connectable="0">
          <mxGeometry x="-0.5402" y="3" relative="1" as="geometry">
            <mxPoint as="offset" />
          </mxGeometry>
        </mxCell>
        <mxCell id="8VBoL8TMkOMirUI06Anp-5" value="&lt;b style=&quot;font-size: 18px;&quot;&gt;accept()&lt;/b&gt;" style="rounded=0;html=1;fontSize=18;fillColor=#4FC4C4;strokeColor=none;fontColor=#EEEEEE;whiteSpace=wrap;labelBorderColor=none;" parent="1" vertex="1">
          <mxGeometry x="120" y="630" width="180" height="40" as="geometry" />
        </mxCell>
        <mxCell id="8VBoL8TMkOMirUI06Anp-8" value="&lt;b&gt;Client Process&lt;/b&gt;" style="text;html=1;strokeColor=none;fillColor=none;align=center;verticalAlign=middle;whiteSpace=wrap;rounded=0;fontSize=24;fontColor=#121212;" parent="1" vertex="1">
          <mxGeometry x="460" y="180" width="200" height="30" as="geometry" />
        </mxCell>
        <mxCell id="8VBoL8TMkOMirUI06Anp-45" style="edgeStyle=orthogonalEdgeStyle;rounded=0;orthogonalLoop=1;jettySize=auto;html=1;strokeColor=#005700;strokeWidth=3;fontSize=18;dashed=1;fillColor=#008a00;exitX=0;exitY=0.5;exitDx=0;exitDy=0;" parent="1" source="_MeqKKNOH61usrx41-5U-6" edge="1">
          <mxGeometry relative="1" as="geometry">
            <mxPoint x="209.9999999999999" y="600" as="targetPoint" />
            <Array as="points">
              <mxPoint x="520" y="470" />
              <mxPoint x="440" y="470" />
              <mxPoint x="440" y="600" />
            </Array>
            <mxPoint x="470" y="470" as="sourcePoint" />
          </mxGeometry>
        </mxCell>
        <mxCell id="8VBoL8TMkOMirUI06Anp-50" value="accept() will&lt;br&gt;not block" style="edgeLabel;html=1;align=center;verticalAlign=middle;resizable=0;points=[];fontSize=18;fontColor=#005700;labelBackgroundColor=#FFFFFFFF;" parent="8VBoL8TMkOMirUI06Anp-45" vertex="1" connectable="0">
          <mxGeometry x="0.3533" y="1" relative="1" as="geometry">
            <mxPoint x="18" as="offset" />
          </mxGeometry>
        </mxCell>
        <mxCell id="8VBoL8TMkOMirUI06Anp-46" style="edgeStyle=orthogonalEdgeStyle;rounded=0;orthogonalLoop=1;jettySize=auto;html=1;strokeColor=#005700;strokeWidth=3;fontSize=18;fillColor=#008a00;exitX=0;exitY=0.5;exitDx=0;exitDy=0;" parent="1" source="_MeqKKNOH61usrx41-5U-6" edge="1">
          <mxGeometry relative="1" as="geometry">
            <mxPoint x="209.9999999999999" y="700" as="targetPoint" />
            <Array as="points">
              <mxPoint x="440" y="470" />
              <mxPoint x="440" y="700" />
            </Array>
            <mxPoint x="470" y="470" as="sourcePoint" />
          </mxGeometry>
        </mxCell>
        <mxCell id="8VBoL8TMkOMirUI06Anp-51" value="&lt;span style=&quot;&quot;&gt;accept() blocks &lt;br&gt;until here&lt;br&gt;&lt;/span&gt;" style="edgeLabel;html=1;align=center;verticalAlign=middle;resizable=0;points=[];fontSize=18;fontColor=#005700;labelBackgroundColor=#FFFFFFFF;" parent="8VBoL8TMkOMirUI06Anp-46" vertex="1" connectable="0">
          <mxGeometry x="0.3727" y="3" relative="1" as="geometry">
            <mxPoint x="-9" y="-3" as="offset" />
          </mxGeometry>
        </mxCell>
        <mxCell id="8VBoL8TMkOMirUI06Anp-20" style="edgeStyle=orthogonalEdgeStyle;rounded=0;orthogonalLoop=1;jettySize=auto;html=1;strokeColor=#121212;strokeWidth=3;fontSize=18;startArrow=none;" parent="1" source="8VBoL8TMkOMirUI06Anp-52" target="8VBoL8TMkOMirUI06Anp-13" edge="1">
          <mxGeometry relative="1" as="geometry">
            <mxPoint x="210" y="1085" as="sourcePoint" />
          </mxGeometry>
        </mxCell>
        <mxCell id="8VBoL8TMkOMirUI06Anp-12" value="&lt;b&gt;read()&lt;/b&gt;" style="rounded=0;html=1;fontSize=18;fillColor=#008a00;strokeColor=none;fontColor=#ffffff;whiteSpace=wrap;labelBorderColor=none;" parent="1" vertex="1">
          <mxGeometry x="120" y="910" width="180" height="40" as="geometry" />
        </mxCell>
        <mxCell id="8VBoL8TMkOMirUI06Anp-31" style="edgeStyle=orthogonalEdgeStyle;rounded=0;orthogonalLoop=1;jettySize=auto;html=1;strokeColor=#121212;strokeWidth=3;fontSize=18;entryX=0;entryY=0.5;entryDx=0;entryDy=0;" parent="1" source="8VBoL8TMkOMirUI06Anp-13" target="_MeqKKNOH61usrx41-5U-8" edge="1">
          <mxGeometry relative="1" as="geometry">
            <mxPoint x="470" y="1150" as="targetPoint" />
          </mxGeometry>
        </mxCell>
        <mxCell id="8VBoL8TMkOMirUI06Anp-13" value="&lt;b style=&quot;font-size: 18px;&quot;&gt;send()&lt;/b&gt;" style="rounded=0;html=1;fontSize=18;fillColor=#008a00;strokeColor=none;fontColor=#ffffff;whiteSpace=wrap;labelBorderColor=none;" parent="1" vertex="1">
          <mxGeometry x="120" y="1130" width="180" height="40" as="geometry" />
        </mxCell>
        <mxCell id="8VBoL8TMkOMirUI06Anp-29" style="edgeStyle=orthogonalEdgeStyle;rounded=0;orthogonalLoop=1;jettySize=auto;html=1;strokeColor=#121212;strokeWidth=3;fontSize=18;" parent="1" source="_MeqKKNOH61usrx41-5U-7" target="8VBoL8TMkOMirUI06Anp-12" edge="1">
          <mxGeometry relative="1" as="geometry">
            <mxPoint x="470" y="930" as="sourcePoint" />
          </mxGeometry>
        </mxCell>
        <mxCell id="8VBoL8TMkOMirUI06Anp-33" value="" style="edgeStyle=orthogonalEdgeStyle;rounded=0;orthogonalLoop=1;jettySize=auto;html=1;strokeColor=#121212;strokeWidth=3;fontSize=18;endArrow=classic;endFill=1;" parent="1" source="8VBoL8TMkOMirUI06Anp-12" target="8VBoL8TMkOMirUI06Anp-52" edge="1">
          <mxGeometry relative="1" as="geometry">
            <mxPoint x="210" y="950" as="sourcePoint" />
            <mxPoint x="210" y="995" as="targetPoint" />
          </mxGeometry>
        </mxCell>
        <mxCell id="8VBoL8TMkOMirUI06Anp-34" value="&lt;b style=&quot;font-size: 18px;&quot;&gt;close()&lt;/b&gt;" style="rounded=0;html=1;fontSize=18;fillColor=#828282;strokeColor=none;fontColor=#ffffff;whiteSpace=wrap;labelBorderColor=none;" parent="1" vertex="1">
          <mxGeometry x="120" y="1250" width="180" height="40" as="geometry" />
        </mxCell>
        <mxCell id="8VBoL8TMkOMirUI06Anp-38" style="edgeStyle=orthogonalEdgeStyle;rounded=0;orthogonalLoop=1;jettySize=auto;html=1;strokeColor=#121212;strokeWidth=3;fontSize=18;" parent="1" source="_MeqKKNOH61usrx41-5U-8" target="_MeqKKNOH61usrx41-5U-12" edge="1">
          <mxGeometry relative="1" as="geometry">
            <mxPoint x="560" y="1200" as="sourcePoint" />
            <mxPoint x="560" y="1250" as="targetPoint" />
          </mxGeometry>
        </mxCell>
        <mxCell id="8VBoL8TMkOMirUI06Anp-41" style="edgeStyle=orthogonalEdgeStyle;rounded=0;orthogonalLoop=1;jettySize=auto;html=1;strokeColor=#121212;strokeWidth=3;fontSize=18;" parent="1" source="8VBoL8TMkOMirUI06Anp-39" target="8VBoL8TMkOMirUI06Anp-5" edge="1">
          <mxGeometry relative="1" as="geometry" />
        </mxCell>
        <mxCell id="8VBoL8TMkOMirUI06Anp-39" value="&lt;b style=&quot;font-size: 18px;&quot;&gt;listen()&lt;/b&gt;" style="rounded=0;html=1;fontSize=18;fillColor=#4FC4C4;strokeColor=none;fontColor=#EEEEEE;whiteSpace=wrap;labelBorderColor=none;" parent="1" vertex="1">
          <mxGeometry x="120" y="540" width="180" height="40" as="geometry" />
        </mxCell>
        <mxCell id="8VBoL8TMkOMirUI06Anp-48" style="edgeStyle=orthogonalEdgeStyle;rounded=0;orthogonalLoop=1;jettySize=auto;html=1;entryX=0;entryY=0.5;entryDx=0;entryDy=0;strokeColor=#121212;strokeWidth=3;fontSize=18;" parent="1" source="8VBoL8TMkOMirUI06Anp-43" target="8VBoL8TMkOMirUI06Anp-5" edge="1">
          <mxGeometry relative="1" as="geometry">
            <Array as="points">
              <mxPoint x="80" y="775" />
              <mxPoint x="80" y="650" />
            </Array>
          </mxGeometry>
        </mxCell>
        <mxCell id="8VBoL8TMkOMirUI06Anp-49" value="Root Thread" style="edgeLabel;html=1;align=center;verticalAlign=middle;resizable=0;points=[];fontSize=18;fontColor=#EEEEEE;labelBackgroundColor=#828282;" parent="8VBoL8TMkOMirUI06Anp-48" vertex="1" connectable="0">
          <mxGeometry x="0.0573" y="-1" relative="1" as="geometry">
            <mxPoint as="offset" />
          </mxGeometry>
        </mxCell>
        <mxCell id="8VBoL8TMkOMirUI06Anp-43" value="Create Thread" style="rhombus;whiteSpace=wrap;html=1;dashed=1;labelBorderColor=none;strokeColor=none;strokeWidth=2;fontSize=18;fontColor=#EEEEEE;fillColor=#A9C4EB;" parent="1" vertex="1">
          <mxGeometry x="160" y="730" width="100" height="90" as="geometry" />
        </mxCell>
        <mxCell id="8VBoL8TMkOMirUI06Anp-44" value="" style="edgeStyle=orthogonalEdgeStyle;rounded=0;orthogonalLoop=1;jettySize=auto;html=1;strokeColor=#121212;strokeWidth=3;fontSize=18;endArrow=none;" parent="1" source="8VBoL8TMkOMirUI06Anp-5" target="8VBoL8TMkOMirUI06Anp-43" edge="1">
          <mxGeometry relative="1" as="geometry">
            <mxPoint x="209.9999999999999" y="670" as="sourcePoint" />
            <mxPoint x="209.9999999999999" y="870" as="targetPoint" />
          </mxGeometry>
        </mxCell>
        <mxCell id="8VBoL8TMkOMirUI06Anp-52" value="&lt;span style=&quot;&quot;&gt;M2M Process&lt;/span&gt;" style="ellipse;whiteSpace=wrap;html=1;aspect=fixed;dashed=1;labelBackgroundColor=none;labelBorderColor=none;strokeColor=none;strokeWidth=2;fontSize=18;fontColor=default;fillColor=#A9C4EB;" parent="1" vertex="1">
          <mxGeometry x="170" y="1000" width="80" height="80" as="geometry" />
        </mxCell>
        <mxCell id="rk63ArFiyoZO-qPRa0fW-2" style="edgeStyle=orthogonalEdgeStyle;rounded=0;orthogonalLoop=1;jettySize=auto;html=1;strokeWidth=3;" parent="1" source="rk63ArFiyoZO-qPRa0fW-1" target="8VBoL8TMkOMirUI06Anp-3" edge="1">
          <mxGeometry relative="1" as="geometry" />
        </mxCell>
        <mxCell id="rk63ArFiyoZO-qPRa0fW-1" value="&lt;span style=&quot;&quot;&gt;Protocol Init&lt;/span&gt;" style="ellipse;whiteSpace=wrap;html=1;aspect=fixed;dashed=1;labelBackgroundColor=none;labelBorderColor=none;strokeColor=none;strokeWidth=2;fontSize=18;fontColor=default;fillColor=#A9C4EB;" parent="1" vertex="1">
          <mxGeometry x="170" y="240" width="80" height="80" as="geometry" />
        </mxCell>
        <mxCell id="_MeqKKNOH61usrx41-5U-9" style="edgeStyle=orthogonalEdgeStyle;rounded=0;orthogonalLoop=1;jettySize=auto;html=1;strokeWidth=3;fontColor=#FFFFFF;" parent="1" source="_MeqKKNOH61usrx41-5U-6" target="_MeqKKNOH61usrx41-5U-7" edge="1">
          <mxGeometry relative="1" as="geometry" />
        </mxCell>
        <mxCell id="_MeqKKNOH61usrx41-5U-6" value="Connect to Server" style="ellipse;whiteSpace=wrap;html=1;aspect=fixed;dashed=1;labelBackgroundColor=none;labelBorderColor=none;strokeColor=none;strokeWidth=2;fontSize=18;fontColor=#FFFFFF;fillColor=#D47F7F;" parent="1" vertex="1">
          <mxGeometry x="520" y="430" width="80" height="80" as="geometry" />
        </mxCell>
        <mxCell id="_MeqKKNOH61usrx41-5U-10" style="edgeStyle=orthogonalEdgeStyle;rounded=0;orthogonalLoop=1;jettySize=auto;html=1;strokeWidth=3;fontColor=#FFFFFF;" parent="1" source="_MeqKKNOH61usrx41-5U-7" target="_MeqKKNOH61usrx41-5U-8" edge="1">
          <mxGeometry relative="1" as="geometry" />
        </mxCell>
        <mxCell id="_MeqKKNOH61usrx41-5U-7" value="Send Request" style="ellipse;whiteSpace=wrap;html=1;aspect=fixed;dashed=1;labelBackgroundColor=none;labelBorderColor=none;strokeColor=none;strokeWidth=2;fontSize=18;fontColor=#FFFFFF;fillColor=#60A917;" parent="1" vertex="1">
          <mxGeometry x="520" y="890" width="80" height="80" as="geometry" />
        </mxCell>
        <mxCell id="_MeqKKNOH61usrx41-5U-8" value="Read Response" style="ellipse;whiteSpace=wrap;html=1;aspect=fixed;dashed=1;labelBackgroundColor=none;labelBorderColor=none;strokeColor=none;strokeWidth=2;fontSize=18;fontColor=#FFFFFF;fillColor=#60A917;" parent="1" vertex="1">
          <mxGeometry x="520" y="1110" width="80" height="80" as="geometry" />
        </mxCell>
        <mxCell id="_MeqKKNOH61usrx41-5U-12" value="End Connection" style="ellipse;whiteSpace=wrap;html=1;aspect=fixed;dashed=1;labelBackgroundColor=none;labelBorderColor=none;strokeColor=none;strokeWidth=2;fontSize=18;fontColor=#FFFFFF;fillColor=#828282;" parent="1" vertex="1">
          <mxGeometry x="520" y="1250" width="80" height="80" as="geometry" />
        </mxCell>
      </root>
    </mxGraphModel>
  </diagram>
  <diagram id="Dz8Xq86TYMw04EMZfX9y" name="Page-3">
    <mxGraphModel dx="1224" dy="810" grid="1" gridSize="10" guides="1" tooltips="1" connect="1" arrows="1" fold="1" page="1" pageScale="1" pageWidth="827" pageHeight="1169" math="0" shadow="0">
      <root>
        <mxCell id="0" />
        <mxCell id="1" parent="0" />
        <mxCell id="moK5i1xN3xTDGJjNxmN2-8" value="" style="rounded=0;whiteSpace=wrap;html=1;" vertex="1" parent="1">
          <mxGeometry x="550" y="333.5" width="310" height="192" as="geometry" />
        </mxCell>
        <mxCell id="moK5i1xN3xTDGJjNxmN2-1" value="" style="shape=mxgraph.cisco.storage.relational_database;sketch=0;html=1;pointerEvents=1;dashed=0;fillColor=#036897;strokeColor=#ffffff;strokeWidth=2;verticalLabelPosition=bottom;verticalAlign=top;align=center;outlineConnect=0;" vertex="1" parent="1">
          <mxGeometry x="761" y="403" width="66" height="53" as="geometry" />
        </mxCell>
        <mxCell id="moK5i1xN3xTDGJjNxmN2-9" style="edgeStyle=orthogonalEdgeStyle;rounded=0;orthogonalLoop=1;jettySize=auto;html=1;startArrow=classic;startFill=1;" edge="1" parent="1" source="moK5i1xN3xTDGJjNxmN2-2" target="moK5i1xN3xTDGJjNxmN2-7">
          <mxGeometry relative="1" as="geometry" />
        </mxCell>
        <mxCell id="moK5i1xN3xTDGJjNxmN2-2" value="Internet" style="shape=mxgraph.cisco.storage.cloud;sketch=0;html=1;pointerEvents=1;dashed=0;fillColor=#036897;strokeColor=#ffffff;strokeWidth=2;verticalLabelPosition=bottom;verticalAlign=top;align=center;outlineConnect=0;fontSize=16;" vertex="1" parent="1">
          <mxGeometry x="340" y="388" width="145.64" height="83" as="geometry" />
        </mxCell>
        <mxCell id="moK5i1xN3xTDGJjNxmN2-3" value="" style="shape=mxgraph.cisco.servers.fileserver;sketch=0;html=1;pointerEvents=1;dashed=0;fillColor=#036897;strokeColor=#ffffff;strokeWidth=2;verticalLabelPosition=bottom;verticalAlign=top;align=center;outlineConnect=0;" vertex="1" parent="1">
          <mxGeometry x="540" y="500" width="43" height="62" as="geometry" />
        </mxCell>
        <mxCell id="moK5i1xN3xTDGJjNxmN2-5" style="edgeStyle=orthogonalEdgeStyle;rounded=0;orthogonalLoop=1;jettySize=auto;html=1;entryX=0.04;entryY=0.5;entryDx=0;entryDy=0;entryPerimeter=0;startArrow=classic;startFill=1;" edge="1" parent="1" source="moK5i1xN3xTDGJjNxmN2-4" target="moK5i1xN3xTDGJjNxmN2-2">
          <mxGeometry relative="1" as="geometry" />
        </mxCell>
        <mxCell id="moK5i1xN3xTDGJjNxmN2-4" value="Client" style="shape=mxgraph.cisco.computers_and_peripherals.workstation;sketch=0;html=1;pointerEvents=1;dashed=0;fillColor=#036897;strokeColor=#ffffff;strokeWidth=2;verticalLabelPosition=bottom;verticalAlign=top;align=center;outlineConnect=0;fontSize=16;" vertex="1" parent="1">
          <mxGeometry x="160" y="398.5" width="83" height="62" as="geometry" />
        </mxCell>
        <mxCell id="moK5i1xN3xTDGJjNxmN2-10" style="edgeStyle=orthogonalEdgeStyle;rounded=0;orthogonalLoop=1;jettySize=auto;html=1;exitX=1;exitY=0.5;exitDx=0;exitDy=0;exitPerimeter=0;startArrow=classic;startFill=1;" edge="1" parent="1" source="moK5i1xN3xTDGJjNxmN2-7" target="moK5i1xN3xTDGJjNxmN2-1">
          <mxGeometry relative="1" as="geometry" />
        </mxCell>
        <mxCell id="moK5i1xN3xTDGJjNxmN2-7" value="" style="shape=mxgraph.cisco.controllers_and_modules.system_controller;sketch=0;html=1;pointerEvents=1;dashed=0;fillColor=#036897;strokeColor=#ffffff;strokeWidth=2;verticalLabelPosition=bottom;verticalAlign=top;align=center;outlineConnect=0;" vertex="1" parent="1">
          <mxGeometry x="619" y="400.5" width="61" height="58" as="geometry" />
        </mxCell>
        <mxCell id="moK5i1xN3xTDGJjNxmN2-11" value="Server" style="text;html=1;strokeColor=none;fillColor=none;align=center;verticalAlign=middle;whiteSpace=wrap;rounded=0;fontSize=16;" vertex="1" parent="1">
          <mxGeometry x="680" y="532" width="60" height="30" as="geometry" />
        </mxCell>
        <mxCell id="moK5i1xN3xTDGJjNxmN2-12" value="Tiny-OneM2M" style="text;html=1;strokeColor=none;fillColor=none;align=center;verticalAlign=middle;whiteSpace=wrap;rounded=0;fontSize=16;" vertex="1" parent="1">
          <mxGeometry x="594.5" y="460.5" width="110" height="30" as="geometry" />
        </mxCell>
        <mxCell id="moK5i1xN3xTDGJjNxmN2-13" value="Database" style="text;html=1;strokeColor=none;fillColor=none;align=center;verticalAlign=middle;whiteSpace=wrap;rounded=0;fontSize=16;" vertex="1" parent="1">
          <mxGeometry x="764" y="460.5" width="60" height="30" as="geometry" />
        </mxCell>
      </root>
    </mxGraphModel>
  </diagram>
</mxfile>
